<?xml version="1.0" encoding="utf-8"?>
<!-- Generator: Adobe Illustrator 26.2.1, SVG Export Plug-In . SVG Version: 6.00 Build 0)  -->
<svg version="1.1" id="Layer_1" xmlns="http://www.w3.org/2000/svg" xmlns:xlink="http://www.w3.org/1999/xlink" x="0px" y="0px"
	 viewBox="0 0 1200 1200" style="enable-background:new 0 0 1200 1200;" xml:space="preserve">
<style type="text/css">
	.st0{fill:#FF2D20;}
</style>
<path class="st0" d="M1149.4,290c0.4,1.5,0.6,3.1,0.6,4.6v243.1c0,6.4-3.4,12.2-8.9,15.4l-204,117.5v232.8c0,6.3-3.4,12.2-8.9,15.4
	l-425.9,245.1c-1,0.6-2,0.9-3.1,1.3c-0.4,0.1-0.8,0.4-1.2,0.5c-3,0.8-6.1,0.8-9.1,0c-0.5-0.1-0.9-0.4-1.4-0.6c-1-0.4-2-0.7-2.9-1.2
	L58.9,918.7c-5.5-3.2-8.9-9-8.9-15.4V174.1c0-1.6,0.2-3.1,0.6-4.7c0.1-0.5,0.4-1,0.6-1.5c0.3-0.9,0.6-1.9,1.1-2.7
	c0.3-0.6,0.8-1,1.2-1.6c0.5-0.7,1-1.4,1.6-2.1c0.5-0.5,1.2-0.9,1.8-1.3c0.6-0.5,1.2-1.1,1.9-1.5h0L271.8,36.2
	c5.5-3.2,12.2-3.2,17.7,0l212.9,122.6h0c0.7,0.4,1.3,1,1.9,1.5c0.6,0.4,1.2,0.8,1.7,1.3c0.6,0.6,1.1,1.4,1.6,2.1
	c0.4,0.5,0.9,1,1.2,1.6c0.5,0.9,0.8,1.8,1.2,2.7c0.2,0.5,0.5,1,0.6,1.5c0.4,1.5,0.6,3.1,0.6,4.6v455.4l177.4-102.1V294.6
	c0-1.6,0.2-3.1,0.6-4.6c0.2-0.5,0.4-1,0.6-1.5c0.4-0.9,0.7-1.9,1.2-2.7c0.3-0.6,0.8-1,1.2-1.6c0.5-0.7,1-1.4,1.6-2.1
	c0.5-0.5,1.2-0.9,1.7-1.3c0.7-0.5,1.2-1.1,1.9-1.5h0l212.9-122.6c5.5-3.2,12.2-3.2,17.7,0l212.9,122.6c0.8,0.4,1.3,1,2,1.5
	c0.6,0.4,1.2,0.8,1.7,1.3c0.6,0.6,1.1,1.4,1.6,2.1c0.4,0.5,0.9,1,1.2,1.6c0.5,0.9,0.8,1.8,1.2,2.7C1149,289,1149.2,289.4,1149.4,290
	L1149.4,290z M1114.5,527.4V325.3l-74.5,42.9l-102.9,59.3v202.1L1114.5,527.4L1114.5,527.4z M901.6,893.1V690.8l-101.2,57.8
	l-289.1,165v204.2L901.6,893.1z M85.5,204.8v688.3l390.3,224.7V913.6L271.9,798.2l-0.1,0l-0.1,0c-0.7-0.4-1.3-1-1.9-1.5
	c-0.6-0.4-1.2-0.8-1.7-1.3l0-0.1c-0.6-0.6-1-1.2-1.5-1.9c-0.4-0.6-1-1.1-1.3-1.7l0-0.1c-0.4-0.7-0.6-1.5-0.9-2.2
	c-0.3-0.7-0.7-1.3-0.8-2v0c-0.2-0.8-0.3-1.7-0.4-2.6c-0.1-0.7-0.3-1.3-0.3-2V306.9L160,247.7L85.5,204.8L85.5,204.8z M280.7,72
	L103.3,174.1l177.3,102.1L458,174.1L280.7,72L280.7,72z M372.9,709.2L475.8,650V204.8l-74.5,42.9l-102.9,59.3v445.2L372.9,709.2z
	 M919.4,192.5L742,294.6l177.4,102.1l177.3-102.1L919.4,192.5z M901.6,427.4l-102.9-59.3l-74.5-42.9v202.1l102.9,59.2l74.5,42.9
	V427.4z M493.5,882.9l260.1-148.5l130-74.2l-177.2-102L502.4,675.6l-186,107.1L493.5,882.9z"/>
</svg>
