<?xml version="1.0" encoding="utf-8"?>
<!-- Generator: Adobe Illustrator 26.2.1, SVG Export Plug-In . SVG Version: 6.00 Build 0)  -->
<svg version="1.1" id="Layer_1" xmlns="http://www.w3.org/2000/svg" xmlns:xlink="http://www.w3.org/1999/xlink" x="0px" y="0px"
	 viewBox="0 0 1200 1200" style="enable-background:new 0 0 1200 1200;" xml:space="preserve">
<style type="text/css">
	.st0{fill:url(#SVGID_1_);}
	.st1{fill:url(#SVGID_00000096027920986614861910000016912016410147039895_);}
</style>
<linearGradient id="SVGID_1_" gradientUnits="userSpaceOnUse" x1="-359.7242" y1="1139.9518" x2="-359.4301" y2="1139.6599" gradientTransform="matrix(1849.2675 0 0 -1853.3917 665377.6875 2112927.25)">
	<stop  offset="0" style="stop-color:#387EB8"/>
	<stop  offset="1" style="stop-color:#366994"/>
</linearGradient>
<path class="st0" d="M594.3,48.9C315.1,48.9,332.5,170,332.5,170l0.3,125.5h266.5v37.7H227c0,0-178.7-20.3-178.7,261.5
	c0,281.8,156,271.8,156,271.8h93.1V735.7c0,0-5-156,153.5-156h264.3c0,0,148.5,2.4,148.5-143.5V195C863.6,195,886.2,48.9,594.3,48.9
	z M447.4,133.3c26.5,0,47.9,21.4,47.9,47.9c0,0,0,0.1,0,0.1c0,26.5-21.4,47.9-47.9,47.9c0,0-0.1,0-0.1,0
	c-26.5,0-47.9-21.4-47.9-47.9c0,0,0-0.1,0-0.1C399.4,154.8,420.8,133.3,447.4,133.3C447.3,133.3,447.4,133.3,447.4,133.3z"/>
<linearGradient id="SVGID_00000155104634387223671600000004701676809122339206_" gradientUnits="userSpaceOnUse" x1="-359.8918" y1="1140.1033" x2="-359.5759" y2="1139.804" gradientTransform="matrix(1849.2671 0 0 -1853.392 666022.0625 2113555)">
	<stop  offset="0" style="stop-color:#FFE052"/>
	<stop  offset="1" style="stop-color:#FFC331"/>
</linearGradient>
<path style="fill:url(#SVGID_00000155104634387223671600000004701676809122339206_);" d="M602.2,1143.2
	c279.2,0,261.8-121.1,261.8-121.1l-0.3-125.5H597.3V859h372.3c0,0,178.7,20.3,178.7-261.5c0-281.8-156-271.8-156-271.8h-93.1v130.7
	c0,0,5,156-153.5,156H481.5c0,0-148.5-2.4-148.5,143.5v241.3C333,997.2,310.4,1143.2,602.2,1143.2L602.2,1143.2z M749.2,1058.9
	c-26.5,0-47.9-21.4-47.9-47.9c0,0,0-0.1,0-0.1c0-26.5,21.4-47.9,47.8-47.9c0,0,0.1,0,0.1,0c26.5,0,47.9,21.4,47.9,47.9
	c0,0,0,0.1,0,0.1C797.2,1037.4,775.7,1058.8,749.2,1058.9C749.2,1058.9,749.2,1058.9,749.2,1058.9L749.2,1058.9z"/>
</svg>
