<?xml version="1.0" encoding="utf-8"?>
<!-- Generator: Adobe Illustrator 26.2.1, SVG Export Plug-In . SVG Version: 6.00 Build 0)  -->
<svg version="1.1" id="Layer_1" xmlns="http://www.w3.org/2000/svg" xmlns:xlink="http://www.w3.org/1999/xlink" x="0px" y="0px"
	 viewBox="0 0 1200 1200" style="enable-background:new 0 0 1200 1200;" xml:space="preserve">
<style type="text/css">
	.st0{fill:#61DAFB;}
</style>
<g>
	<path class="st0" d="M1150,600.1L1150,600.1c0-72.9-91.3-141.9-231.2-184.8c32.3-142.6,17.9-256.1-45.3-292.4
		c-14.5-8.5-31.5-12.5-50-12.6v-0.2c-61.7,0-142.4,43.9-224,120.2c-81.6-75.8-162.3-119.3-224-119.3v0.2c-18.8,0-35.9,4-50.7,12.6
		c-63,36.3-77.1,149.6-44.6,291.7C140.8,458.6,50,527.5,50,600.1C50,673,141.3,742,281.2,784.9c-32.3,142.6-17.9,256.1,45.3,292.4
		c14.6,8.5,31.6,12.6,50.4,12.6c61.7,0,142.4-43.9,224-120.2c81.6,75.8,162.3,119.3,224,119.3c18.8,0,35.9-4,50.7-12.6
		c63-36.3,77.1-149.6,44.6-291.7C1059.2,741.8,1150,672.8,1150,600.1z M823.3,160.2v0.2c10.3,0,18.6,2,25.6,5.8
		c30.5,17.5,43.7,84.1,33.4,169.7c-2.5,21.1-6.5,43.3-11.4,65.9c-43.9-10.8-91.9-19.1-142.4-24.4c-30.3-41.5-61.7-79.1-93.3-112.1
		C708.2,197.5,776.7,160.3,823.3,160.2z M701.3,775c-33.4,2.9-67.3,4.5-101.3,4.5c-33.9,0-67.7-1.6-100.9-4.3
		c-18.6-26.7-36.8-55.2-54.3-85.2c-17-29.4-32.5-59.2-46.6-89.2c13.9-30,29.6-60.1,46.4-89.5c17.5-30.3,35.4-59,54-85.7
		c33.4-2.9,67.3-4.5,101.3-4.5c33.9,0,67.7,1.6,100.9,4.3c18.6,26.7,36.8,55.2,54.3,85.2c17,29.4,32.5,59.2,46.6,89.2
		c-14.1,30-29.6,60.1-46.4,89.5l0,0C737.9,719.6,720,748.3,701.3,775z M401.3,714.9c10.5,17.9,21.3,35.4,32.3,52.5
		c-31.8-4.7-62.6-10.5-91.9-17.7c8.3-28.9,18.6-58.7,30.3-88.6C381.2,679,390.8,697,401.3,714.9z M341,450.6
		c29.4-7,60.3-13,92.4-17.7c-11,17.3-22,35-32.3,53.1c-10.3,17.9-20,35.9-29.1,53.8C359.9,509.8,349.6,479.7,341,450.6z
		 M798.7,714.2c10.3-17.9,20-36.1,29.1-54v0c12.1,30,22.4,60.1,30.9,89.2c-29.4,7.2-60.3,13.2-92.4,17.9
		C777.4,750.1,788.3,732.4,798.7,714.2z M798.4,485.3c-10.3-17.9-21.3-35.4-32.3-52.5c31.8,4.7,62.6,10.5,91.9,17.7
		c-8.3,28.9-18.6,58.7-30.3,88.6C818.6,521.2,809,503.3,798.4,485.3z M661.7,372.5c-20.2-0.9-40.8-1.6-61.7-1.6
		c-21.1,0-41.9,0.4-62.3,1.6c20.2-26.2,41-50.2,61.7-71.7C620.2,322.3,641,346.3,661.7,372.5z M349.8,167.2c6.7-4,15.5-5.8,25.8-5.8
		v-0.2c46.4,0,115.2,37,188.3,104.5c-31.4,33-62.8,70.4-92.6,111.9c-50.7,5.4-98.7,13.7-142.6,24.7c-5.2-22.4-9-44.2-11.7-65
		C306.5,251.5,319.5,184.9,349.8,167.2z M293.3,736.4c-22.2-7-43.3-14.6-62.8-22.9l0,0c-79.4-33.9-130.7-78.3-130.7-113.5
		s51.3-79.8,130.7-113.5c19.3-8.3,40.4-15.7,62.1-22.6c12.8,43.9,29.6,89.7,50.4,136.5C322.4,647.2,305.8,692.7,293.3,736.4z
		 M376.5,1040c-10.1-0.2-18.6-2.2-25.3-6.1h0c-30.5-17.5-43.7-84.1-33.4-169.7c2.5-21.1,6.5-43.3,11.4-65.9
		c43.9,10.8,91.9,19.1,142.4,24.4c30.3,41.5,61.7,79.1,93.3,112.1C491.7,1002.8,423.1,1040,376.5,1040z M600.4,899.4
		c-20.9-21.5-41.7-45.5-62.3-71.7c20.2,0.9,40.8,1.6,61.7,1.6c21.1,0,41.9-0.4,62.3-1.6C641.9,853.9,621.1,877.9,600.4,899.4z
		 M850.2,1033.1c-6.7,4-15.5,5.8-25.8,5.8c-46.4,0-115.2-37-188.3-104.5c31.4-33,62.8-70.4,92.6-111.9
		c50.7-5.4,98.7-13.7,142.6-24.7c5.2,22.6,9.2,44.4,11.7,65.2C893.5,948.8,880.5,1015.4,850.2,1033.1z M969.3,713.6L969.3,713.6
		c-19.3,8.3-40.4,15.7-62.1,22.6c-12.8-43.9-29.6-89.7-50.4-136.5c20.6-46.6,37.2-92.2,49.8-135.9c22.2,7,43.3,14.6,63,22.9
		c79.4,33.9,130.7,78.3,130.7,113.5C1100,635.3,1048.7,679.9,969.3,713.6z"/>
	
		<ellipse transform="matrix(0.7071 -0.7071 0.7071 0.7071 -248.6731 599.8741)" class="st0" cx="599.8" cy="600.1" rx="102.5" ry="102.5"/>
</g>
</svg>
