<?xml version="1.0" encoding="utf-8"?>
<!-- Generator: Adobe Illustrator 26.2.1, SVG Export Plug-In . SVG Version: 6.00 Build 0)  -->
<svg version="1.1" id="Layer_1" xmlns="http://www.w3.org/2000/svg" xmlns:xlink="http://www.w3.org/1999/xlink" x="0px" y="0px"
	 viewBox="0 0 1200 1200" style="enable-background:new 0 0 1200 1200;" xml:space="preserve">
<style type="text/css">
	.st0{fill:#CF649A;}
</style>
<path class="st0" d="M996.9,661.2c-38.5,0.2-71.8,9.5-99.7,23.2c-10.3-20.4-20.6-38.2-22.3-51.6c-1.9-15.5-4.3-24.9-1.9-43.4
	c2.4-18.5,13.1-44.7,13.1-46.8c-0.2-1.9-2.4-11.4-24.5-11.6c-22.1-0.2-41.3,4.3-43.4,10.1s-6.4,19.1-9.2,32.9
	c-3.9,20.2-44.3,91.7-67.3,129.3c-7.5-14.6-14-27.5-15.3-37.8c-1.9-15.5-4.3-24.9-1.9-43.4c2.4-18.5,13.1-44.7,13.1-46.8
	c-0.2-1.9-2.4-11.4-24.5-11.6c-22.1-0.2-41.3,4.3-43.4,10.1s-4.5,19.6-9.2,32.9c-4.5,13.3-58.2,132.8-72.2,163.9
	c-7.1,15.9-13.3,28.6-17.8,37.2c-4.5,8.6-0.2,0.6-0.6,1.5c-3.9,7.3-6,11.4-6,11.4v0.2c-3,5.4-6.2,10.5-7.7,10.5
	c-1.1,0-3.2-14.4,0.4-34.2c7.9-41.5,27.3-106.1,27.1-108.5c0-1.1,3.7-12.5-12.5-18.3c-15.7-5.8-21.3,3.9-22.6,3.9
	c-1.3,0-2.4,3.4-2.4,3.4s17.4-72.8-33.3-72.8c-31.8,0-75.6,34.6-97.3,66.2c-13.8,7.5-43,23.4-73.9,40.4
	c-11.8,6.4-24.1,13.3-35.7,19.6l-2.4-2.6c-61.5-65.5-175.1-111.9-170.4-200c1.7-32,12.9-116.5,218.3-218.7
	c168.2-83.8,303-60.8,326.4-9.7c33.3,73.1-72,208.8-246.9,228.4c-66.6,7.5-101.6-18.3-110.4-27.9c-9.2-10.1-10.5-10.5-14-8.6
	c-5.6,3-2.1,12,0,17.4c5.2,13.5,26.6,37.6,63.2,49.6c32,10.5,110.2,16.3,204.8-20.2c105.9-41,188.6-154.9,164.4-250.1
	c-24.7-96.9-185.4-128.7-337.3-74.8c-90.5,32.2-188.4,82.5-258.9,148.5c-83.8,78.2-97.1,146.5-91.5,174.9
	c19.6,101.2,159,167.2,214.9,215.9c-2.8,1.5-5.4,3-7.7,4.3c-27.9,13.7-134.3,69.4-160.9,128.3c-30.1,66.6,4.7,114.5,27.9,121
	c71.8,20,145.2-15.9,185-75c39.5-59.1,34.8-135.8,16.5-170.8l-0.6-1.3l21.9-12.9c14.2-8.4,28.1-16.1,40.4-22.8
	c-6.9,18.7-11.8,40.8-14.4,73.1c-3,37.8,12.5,86.8,32.9,106.1c9,8.4,19.8,8.6,26.4,8.6c23.6,0,34.4-19.6,46.2-43
	c14.6-28.6,27.5-61.7,27.5-61.7s-16.1,89.6,27.9,89.6c16.1,0,32.2-20.8,39.5-31.6v0.2c0,0,0.4-0.6,1.3-2.1c0.9-1.3,1.8-2.7,2.6-4.1
	v-0.4c6.4-11.2,20.8-36.7,42.3-79.1c27.7-54.6,54.4-122.9,54.4-122.9s2.6,16.8,10.5,44.3c4.7,16.3,15,34.2,23,51.6
	c-6.4,9-10.3,14.2-10.3,14.2l0.2,0.2c-5.2,6.9-11,14.2-17,21.5c-21.9,26.2-48.1,56.1-51.6,64.7c-4.1,10.1-3.2,17.6,4.7,23.6
	c5.8,4.3,16.1,5.2,27.1,4.3c19.8-1.3,33.5-6.2,40.4-9.2c10.7-3.9,23-9.7,34.8-18.3c21.5-15.9,34.6-38.5,33.3-68.5
	c-0.6-16.5-6-32.9-12.7-48.3c1.9-2.8,3.9-5.6,5.8-8.6c33.9-49.6,60.2-104.2,60.2-104.2s2.6,16.8,10.5,44.3
	c4.1,14,12.2,29.2,19.6,44.3c-31.8,26-51.8,56.1-58.7,75.8c-12.7,36.5-2.8,53.1,15.9,56.9c8.4,1.7,20.4-2.1,29.4-6
	c11.2-3.7,24.7-9.9,37.2-19.1c21.5-15.9,42.1-38,41-67.9c-0.6-13.8-4.3-27.3-9.2-40.2c27.1-11.2,62.1-17.6,106.6-12.2
	c95.6,11.2,114.5,70.9,110.9,95.8c-3.7,24.9-23.6,38.7-30.3,43c-6.7,4.1-8.8,5.6-8.2,8.6c0.9,4.5,3.9,4.3,9.7,3.4
	c7.9-1.3,50.3-20.4,52-66.4C1152.5,725,1096.4,660.6,996.9,661.2L996.9,661.2z M259.5,909.8c-31.6,34.6-76.1,47.7-95,36.5
	c-20.4-11.8-12.5-62.7,26.4-99.5c23.6-22.3,54.4-43,74.6-55.6c4.5-2.8,11.4-6.9,19.6-11.8c1.3-0.9,2.1-1.3,2.1-1.3
	c1.5-0.9,3.2-1.9,4.9-3C306.6,827.5,292.8,873.5,259.5,909.8L259.5,909.8z M490.5,752.7c-11,26.9-34.2,95.8-48.1,92
	c-12-3.2-19.3-55.4-2.4-107c8.6-26,26.9-56.9,37.6-69c17.4-19.3,36.3-25.8,41-17.8C524.2,661.2,497.4,736,490.5,752.7z M681.1,843.8
	c-4.7,2.4-9,4.1-11,2.8c-1.5-0.9,1.9-4.1,1.9-4.1s23.8-25.6,33.3-37.4c5.4-6.9,11.8-14.8,18.7-23.8v2.6
	C724.1,814.8,694.4,835.5,681.1,843.8L681.1,843.8z M828,810.3c-3.4-2.6-3-10.5,8.6-35.5c4.5-9.9,14.8-26.4,32.7-42.1
	c2.1,6.4,3.4,12.7,3.2,18.5C872.3,789.9,844.8,804.3,828,810.3z"/>
</svg>
