<?xml version="1.0" encoding="utf-8"?>
<!-- Generator: Adobe Illustrator 26.2.1, SVG Export Plug-In . SVG Version: 6.00 Build 0)  -->
<svg version="1.1" id="Layer_1" xmlns="http://www.w3.org/2000/svg" xmlns:xlink="http://www.w3.org/1999/xlink" x="0px" y="0px"
	 viewBox="0 0 1200 1200" style="enable-background:new 0 0 1200 1200;" xml:space="preserve">
<style type="text/css">
	.st0{fill:#06B6D4;}
</style>
<path class="st0" d="M600,270.1c-146.7,0-238.3,73.3-275,219.9c55-73.3,119.2-100.8,192.5-82.5c41.8,10.5,71.7,40.8,104.9,74.4
	c53.9,54.7,116.3,118,252.7,118c146.7,0,238.3-73.3,275-219.9c-55,73.3-119.2,100.8-192.5,82.5c-41.8-10.5-71.7-40.8-104.8-74.4
	C798.7,333.4,736.3,270.1,600,270.1L600,270.1z M325,600c-146.7,0-238.3,73.3-275,219.9c55-73.3,119.2-100.8,192.5-82.5
	c41.8,10.5,71.7,40.8,104.8,74.4c53.9,54.7,116.3,118.1,252.7,118.1c146.7,0,238.3-73.3,275-219.9c-55,73.3-119.2,100.8-192.5,82.5
	c-41.8-10.4-71.7-40.8-104.9-74.4C523.7,663.3,461.3,600,325,600L325,600z"/>
</svg>
