<?xml version="1.0" encoding="utf-8"?>
<!-- Generator: Adobe Illustrator 26.2.1, SVG Export Plug-In . SVG Version: 6.00 Build 0)  -->
<svg version="1.1" id="Layer_1" xmlns="http://www.w3.org/2000/svg" xmlns:xlink="http://www.w3.org/1999/xlink" x="0px" y="0px"
	 viewBox="0 0 1200 1200" style="enable-background:new 0 0 1200 1200;" xml:space="preserve">
<style type="text/css">
	.st0{fill:#FFFFFF;}
	.st1{fill:#8ED6FB;}
	.st2{fill:#1C78C0;}
</style>
<path class="st0" d="M600,50l486.1,275v550L600,1150L113.9,875V325L600,50z"/>
<path class="st1" d="M999.3,856L616,1072.8V904l238.8-131.4L999.3,856z M1025.5,832.3V378.9l-140.2,80.9v291.4L1025.5,832.3
	L1025.5,832.3z M199.1,856l383.3,216.8V904L343.6,772.6L199.1,856L199.1,856z M172.9,832.3V378.9l140.2,80.9v291.4L172.9,832.3
	L172.9,832.3z M189.3,349.6l393.1-222.4v163.3L330.6,428.9l-1.9,1.1L189.3,349.6z M1009.1,349.6L616,127.2v163.3l251.8,138.5
	l1.9,1.1L1009.1,349.6z"/>
<path class="st2" d="M582.4,865.6L346.8,736V479.4l235.6,136V865.6 M616,865.6L851.6,736V479.4L616,615.4V865.6 M362.8,449.7
	l236.5-130.1l236.5,130.1L599.3,586.2L362.8,449.7"/>
</svg>
